<?xml version="1.0" encoding="utf-8"?>
<!-- Generator: Adobe Illustrator 24.3.0, SVG Export Plug-In . SVG Version: 6.00 Build 0)  -->
<svg version="1.1" xmlns="http://www.w3.org/2000/svg" xmlns:xlink="http://www.w3.org/1999/xlink" x="0px" y="0px"
	 viewBox="0 0 612 2021.52" style="enable-background:new 0 0 612 2021.52;" xml:space="preserve">
<style type="text/css">
	.st0{fill:#6A5277;}
	.st1{fill:#8A7593;}
	.st2{fill:#CB9369;}
	.st3{fill:#D38747;}
	.st4{fill:#617A61;}
	.st5{fill:#7FA4A2;}
	.st6{fill:#5B7C68;}
	.st7{fill:#A3C1C0;}
	.st8{fill:#8BAF9A;}
	.st9{fill:#527F6E;}
	.st10{fill:#46664B;}
	.st11{display:none;}
	.st12{display:inline;opacity:0.47;fill:#969696;stroke:#000000;stroke-width:0.8132;stroke-miterlimit:10;}
	.st13{display:inline;stroke:#FFFFFF;stroke-width:0.8132;stroke-miterlimit:10;}
	.st14{display:inline;stroke:#FFFFFF;stroke-width:1.2481;stroke-miterlimit:10;}
	.st15{display:inline;fill:#969696;stroke:#000000;stroke-width:0.8132;stroke-miterlimit:10;}
	.st16{display:inline;stroke:#FFFFFF;stroke-width:1.2598;stroke-miterlimit:10;}
	.st17{display:inline;fill:#FFFFFF;stroke:#000000;stroke-width:1.2481;stroke-miterlimit:10;}
	.st18{display:inline;}
	.st19{font-family:'MyriadPro-Regular';}
	.st20{font-size:29.1686px;}
	.st21{display:inline;fill:#FFFFFF;}
	.st22{font-size:40.0441px;}
	.st23{font-size:81.2942px;}
	.st24{font-size:41.6244px;}
	.st25{display:inline;fill:#6A5277;}
	.st26{display:inline;fill:#8A7593;}
	.st27{display:inline;fill:#CB9369;}
	.st28{display:inline;fill:#D38747;}
	.st29{display:inline;fill:#7FA4A2;}
	.st30{display:inline;fill:#A3C1C0;}
	.st31{display:inline;fill:#5B7C68;}
	.st32{display:inline;fill:#8BAF9A;}
	.st33{display:inline;fill:none;}
	.st34{font-family:'AdellePELt';}
	.st35{font-size:26.0438px;}
	.st36{font-size:13.6537px;}
</style>
<g id="Layer_4">
	<rect x="0.14" y="287.86" class="st0" width="614.09" height="454.26"/>
	<path class="st1" d="M39.66,477.98c24.3,8.85,50.53-9.86,74.81-14.33c57.59-10.6,114.91,3.71,172.04,13.44
		c28.71,4.89,57.6,8.72,86.53,7.46c30.96-1.34,60.86-11.45,91.33-18.54c28.52-6.64,56.05-8.93,84.8-4.42
		c21.64,3.39,43.13,7.88,64.76,10.55V271.55H2.96V466.6C15.05,466.6,27.44,473.53,39.66,477.98z"/>
	<path class="st2" d="M36.99,297.01c24.26,3.48,50.46-3.87,74.7-5.63c57.51-4.16,114.74,1.46,171.8,5.28
		c28.67,1.92,57.52,3.42,86.4,2.93c30.92-0.53,60.77-4.5,91.2-7.28c28.48-2.61,55.97-3.51,84.68-1.74
		c21.61,1.33,43.07,3.1,64.66,4.14v-78.79H0.34v76.62C12.41,292.54,24.79,295.26,36.99,297.01z"/>
	<path class="st3" d="M38.02,251.71c24.29,10.75,50.53-11.98,74.8-17.4c57.59-12.87,114.9,4.5,172.03,16.32
		c28.71,5.94,57.59,10.58,86.52,9.06c30.96-1.63,60.85-13.9,91.33-22.52c28.52-8.06,56.05-10.84,84.8-5.37
		c21.64,4.12,43.13,9.57,64.75,12.81V1.01H1.32V237.9C13.41,237.89,25.81,246.31,38.02,251.71z"/>
	<polygon class="st4" points="0.24,683 152.28,663.01 288.48,666.65 443.68,647.57 576.71,639.39 611.56,628.49 611.56,749.33 
		9.74,749.33 	"/>
	<polygon class="st5" points="-2.53,762.52 149.51,742.53 285.71,746.16 440.91,727.08 573.94,718.91 608.78,708 608.78,828.85 
		6.97,828.85 	"/>
	<polygon class="st6" points="-0.82,651.04 190.16,710.04 371.87,745.91 464.21,783.43 610.73,894.83 305.24,894.83 -0.26,894.83 
		-0.99,709.02 	"/>
	<polygon class="st7" points="-4.33,842.39 149.05,798.94 286.45,806.84 443.02,765.37 577.23,747.59 612.38,723.9 612.38,986.55 
		5.26,986.55 	"/>
	<polygon class="st8" points="-3.24,717.84 122.38,782.44 241.89,821.7 302.63,862.79 616.47,1051.62 202.53,1021.76 -2.87,984.75 
		-3.35,781.32 	"/>
	<polygon class="st9" points="-1.35,1125.34 -0.46,964.05 272.18,981.96 459.25,1031.71 580.21,923.89 615.36,873.52 
		615.36,1431.72 -0.46,1433.71 	"/>
	<polygon class="st10" points="616.6,1419.99 463.22,1238.53 325.81,1271.52 169.24,1098.31 35.03,1024.07 -0.12,925.09 
		-0.12,2022.13 617.54,2023.06 	"/>
</g>
<g id="Layer_1" class="st11">
	<rect x="-16.56" y="96.9" class="st12" width="646.35" height="415.2"/>
	<rect x="14.67" y="846.99" class="st13" width="177.54" height="177.54"/>
	<rect x="218.62" y="846.99" class="st13" width="177.54" height="177.54"/>
	<rect x="417.52" y="846.99" class="st13" width="177.54" height="177.54"/>
	<rect x="46.87" y="468.41" class="st14" width="518.26" height="301.76"/>
	<rect x="24.67" y="1280.66" class="st15" width="563.9" height="583.04"/>
	<rect x="14.67" y="1045.81" class="st13" width="177.54" height="177.54"/>
	<rect x="219.32" y="1044.34" class="st13" width="177.54" height="177.54"/>
	<rect x="418.09" y="1042.87" class="st13" width="177.54" height="177.54"/>
	<rect x="28.41" y="1923.11" class="st16" width="560.2" height="72.63"/>
	<rect x="310.78" y="1941.42" class="st17" width="67.44" height="36.31"/>
	<rect x="403.83" y="1942.64" class="st17" width="67.44" height="36.31"/>
	<rect x="493.28" y="1942.64" class="st17" width="67.44" height="36.31"/>
	<rect x="91.8" y="1942.43" class="st17" width="164.28" height="35.91"/>
	<text transform="matrix(1 0 0 1 232.7164 1910.2211)" class="st18 st19 st20">Social Media</text>
</g>
<g id="Layer_2" class="st11">
	<text transform="matrix(1 0 0 1 117.1408 649.7664)" class="st21 st19 st22">introduction/Summary</text>
	<text transform="matrix(1 0 0 1 214.8213 81.4187)" class="st21 st19 st22">Header/Nav</text>
	<text transform="matrix(1 0 0 1 205.3725 307.9171)" class="st18 st19 st23">Image</text>
	<text transform="matrix(1 0 0 1 236.8 1593.9971)" class="st18 st19 st24">Resume</text>
</g>
<g id="Layer_3" class="st11">
	<rect x="-0.73" y="0.06" class="st25" width="611.28" height="115.26"/>
	<path class="st26" d="M35.97,32.46c24.3,0.88,50.53-0.98,74.81-1.43c57.59-1.06,114.91,0.37,172.04,1.34
		c28.71,0.49,57.6,0.87,86.53,0.74c30.96-0.13,60.86-1.14,91.33-1.85c28.52-0.66,56.05-0.89,84.8-0.44
		c21.64,0.34,43.13,0.79,64.76,1.05V11.89H-0.73v19.44C11.36,31.33,23.75,32.02,35.97,32.46z"/>
	<path class="st27" d="M36.89,20.63c24.26,0.88,50.46-0.98,74.7-1.43c57.51-1.06,114.74,0.37,171.8,1.34
		c28.67,0.49,57.52,0.87,86.4,0.74c30.92-0.13,60.77-1.14,91.2-1.85c28.48-0.66,55.97-0.89,84.68-0.44
		c21.61,0.34,43.07,0.79,64.66,1.05V0.06H0.24V19.5C12.32,19.5,24.69,20.19,36.89,20.63z"/>
	<path class="st28" d="M36.13,14.09c24.29,0.6,50.53-0.67,74.8-0.97c57.59-0.72,114.9,0.25,172.03,0.91
		c28.71,0.33,57.59,0.59,86.52,0.51c30.96-0.09,60.85-0.78,91.33-1.26c28.52-0.45,56.05-0.61,84.8-0.3
		c21.64,0.23,43.13,0.54,64.75,0.72V0.06H-0.57v13.26C11.52,13.32,23.92,13.79,36.13,14.09z"/>
	<polygon class="st29" points="310.76,87.05 385.3,78.73 452.08,80.24 528.18,72.31 593.4,68.91 610.49,64.37 610.49,114.63 
		315.42,114.63 	"/>
	<polygon class="st30" points="305.69,91.36 381.49,84.14 449.4,85.45 526.78,78.56 593.11,75.6 610.49,71.67 610.49,115.31 
		310.42,115.31 	"/>
	<polygon class="st31" points="-0.98,53.87 124.64,68.47 244.16,77.35 304.89,86.63 401.26,114.2 200.33,114.2 -0.6,114.2 
		-1.09,68.22 	"/>
	<polygon class="st32" points="-1.53,68.79 124.08,79.96 243.6,86.76 304.33,93.86 400.71,114.96 199.77,114.96 -1.16,114.96 
		-1.65,79.77 	"/>
	<rect x="60.46" y="30.92" class="st33" width="255.99" height="55.65"/>
	<text transform="matrix(1 0 0 1 60.4571 50.5844)" class="st21 st34 st35">Maximilian Glick</text>
	<rect x="-0.73" y="111.12" class="st18" width="611.96" height="48.24"/>
	<text transform="matrix(1 0 0 1 235.4023 140.3564)" class="st21 st34 st36">Photography Work</text>
	<text transform="matrix(1 0 0 1 121.4394 140.3564)" class="st21 st34 st36">Graphic Work</text>
	<text transform="matrix(1 0 0 1 459.7529 140.3574)" class="st21 st34 st36">About Me</text>
	<text transform="matrix(1 0 0 1 379.3867 140.3564)" class="st21 st34 st36">Resume</text>
</g>
</svg>
